<svg xmlns="http://www.w3.org/2000/svg" width="17" height="16" viewBox="0 0 17 16" fill="none">
    <path
        d="M15.9332 7.81213C14.3178 4.33933 11.2789 2.18457 8 2.18457C4.72114 2.18457 1.6822 4.33933 0.0667645 7.81213C0.0227292 7.90556 0 8.00639 0 8.10832C0 8.21025 0.0227292 8.31109 0.0667645 8.40451C1.6822 11.8773 4.72114 14.0321 8 14.0321C11.2789 14.0321 14.3178 11.8773 15.9332 8.40451C15.9773 8.31109 16 8.21025 16 8.10832C16 8.00639 15.9773 7.90556 15.9332 7.81213ZM8 12.5511C5.46488 12.5511 3.06572 10.8555 1.6822 8.10832C3.06572 5.36118 5.46488 3.66551 8 3.66551C10.5351 3.66551 12.9343 5.36118 14.3178 8.10832C12.9343 10.8555 10.5351 12.5511 8 12.5511ZM8 5.14645C7.36732 5.14645 6.74885 5.32016 6.22279 5.64561C5.69674 5.97107 5.28673 6.43365 5.04461 6.97486C4.8025 7.51607 4.73915 8.11161 4.86258 8.68615C4.98601 9.2607 5.29067 9.78846 5.73805 10.2027C6.18542 10.6169 6.75541 10.899 7.37593 11.0133C7.99645 11.1276 8.63964 11.0689 9.22416 10.8447C9.80868 10.6206 10.3083 10.2409 10.6598 9.75385C11.0113 9.26677 11.1989 8.69412 11.1989 8.10832C11.1989 7.32278 10.8619 6.56942 10.262 6.01396C9.66205 5.4585 8.8484 5.14645 8 5.14645ZM8 9.58926C7.68366 9.58926 7.37442 9.5024 7.1114 9.33968C6.84837 9.17695 6.64337 8.94566 6.52231 8.67505C6.40125 8.40445 6.36958 8.10668 6.43129 7.8194C6.493 7.53213 6.64534 7.26825 6.86902 7.06114C7.09271 6.85403 7.3777 6.71298 7.68796 6.65584C7.99823 6.5987 8.31982 6.62802 8.61208 6.74011C8.90434 6.8522 9.15414 7.04202 9.32989 7.28556C9.50564 7.5291 9.59944 7.81542 9.59944 8.10832C9.59944 8.50109 9.43093 8.87777 9.13098 9.1555C8.83102 9.43323 8.4242 9.58926 8 9.58926Z"
        fill="#8F95AB" />
    <path
        d="M16.0179 2.58038L15.6782 2.2135L16.0179 2.58038C16.5315 2.10488 16.5314 1.31682 16.0179 0.84132L15.6782 1.2082L16.0179 0.841319C15.5264 0.386227 14.7443 0.386226 14.2528 0.84132L1.16641 12.9581C0.652863 13.4336 0.652862 14.2216 1.16641 14.6971C1.65792 15.1522 2.44004 15.1522 2.93155 14.6971L16.0179 2.58038Z"
        fill="#8F95AB" stroke="white" stroke-linecap="round" />
</svg>