<svg width="48" height="48" viewBox="0 0 48 48" fill="none" xmlns="http://www.w3.org/2000/svg">
    <circle cx="24" cy="24" r="24" fill="black" />
    <path
        d="M30.0689 23.696C30.0594 21.9515 30.8485 20.6347 32.4457 19.665C31.552 18.3863 30.202 17.6828 28.4194 17.5449C26.7319 17.4118 24.8875 18.5289 24.2125 18.5289C23.4994 18.5289 21.8642 17.5925 20.5807 17.5925C17.9282 17.6352 15.1094 19.7078 15.1094 23.9242C15.1094 25.1697 15.3375 26.4563 15.7939 27.7841C16.4023 29.5287 18.5985 33.8069 20.8897 33.7356C22.0876 33.7071 22.9338 32.8847 24.4929 32.8847C26.0046 32.8847 26.7889 33.7356 28.1247 33.7356C30.4349 33.7023 32.4219 29.8139 33.0018 28.0646C29.9025 26.6052 30.0689 23.7864 30.0689 23.696ZM27.3783 15.8907C28.6761 14.3505 28.5572 12.9482 28.5192 12.4443C27.3736 12.5109 26.0473 13.2239 25.2915 14.1033C24.4597 15.0445 23.97 16.2092 24.0746 17.5212C25.3153 17.6162 26.4466 16.9792 27.3783 15.8907Z"
        fill="white" />
</svg>