<svg width="48" height="48" viewBox="0 0 48 48" fill="none" xmlns="http://www.w3.org/2000/svg">
    <circle cx="24" cy="24" r="23.5" fill="white" stroke="#D3D9EB" />
    <path fill-rule="evenodd" clip-rule="evenodd"
        d="M34.8204 24.2429C34.8212 23.511 34.7573 22.7805 34.6293 22.0602H24.7289V26.1864H30.385C30.2676 26.8383 30.0213 27.4594 29.6609 28.0121C29.3005 28.5648 28.8335 29.0376 28.2881 29.4021V32.0792H31.6839C33.6709 30.2221 34.8174 27.4867 34.8174 24.2408L34.8204 24.2429Z"
        fill="#3E82F1" />
    <path fill-rule="evenodd" clip-rule="evenodd"
        d="M24.7319 34.6668C27.5693 34.6668 29.9484 33.7122 31.6869 32.0832L28.291 29.4061C27.3495 30.0462 26.1456 30.4251 24.7319 30.4251C21.9944 30.4251 19.6777 28.5479 18.852 26.0266H15.3403V28.7911C16.2151 30.558 17.5567 32.0432 19.2152 33.0809C20.8736 34.1185 22.7837 34.6676 24.7319 34.6668Z"
        fill="#32A753" />
    <path fill-rule="evenodd" clip-rule="evenodd"
        d="M18.852 26.0266C18.4124 24.7125 18.4124 23.2879 18.852 21.9738V19.2092H15.3403C14.6054 20.6961 14.2227 22.3366 14.2227 24.0002C14.2227 25.6637 14.6054 27.3042 15.3403 28.7911L18.852 26.0266Z"
        fill="#F9BB00" />
    <path fill-rule="evenodd" clip-rule="evenodd"
        d="M24.7319 17.5752C26.2753 17.5752 27.6604 18.1139 28.7494 19.171L31.7631 16.1111C29.9434 14.3897 27.5644 13.3335 24.7338 13.3335C22.7856 13.3328 20.8756 13.8819 19.2171 14.9195C17.5587 15.9571 16.2171 17.4423 15.3423 19.2092L18.854 21.9738C19.6797 19.4524 21.9964 17.5752 24.7338 17.5752H24.7319Z"
        fill="#E74133" />
</svg>