<svg width="48" height="48" viewBox="0 0 48 48" fill="none" xmlns="http://www.w3.org/2000/svg">
    <circle cx="24" cy="24" r="24" fill="#FEE500" />
    <g clip-path="url(#clip0_2019_19604)">
        <path
            d="M16.869 33.7491C17.871 32.6222 18.8163 31.4617 19.1801 29.9222C18.7286 29.6109 18.2524 29.3091 17.8029 28.9696C14.964 26.8232 14.0104 23.4381 15.4237 20.3757C16.2556 18.5729 17.6473 17.2684 19.4059 16.4516C23.7458 14.4358 27.9713 14.6342 31.9339 17.4533C34.5192 19.2926 35.6078 22.5085 34.6636 25.2586C33.8987 27.4875 32.3297 28.9853 30.2938 30.0225C28.1475 31.116 25.8632 31.421 23.4891 31.2205C23.2128 31.1975 22.883 31.2842 22.6459 31.4315C21.0604 32.4206 19.3709 33.1695 17.606 33.7544C17.4019 33.8223 17.1834 33.8452 16.9721 33.8891C16.938 33.8421 16.903 33.7951 16.869 33.7481V33.7491Z"
            fill="#181600" />
    </g>
    <defs>
        <clipPath id="clip0_2019_19604">
            <rect width="23.1111" height="18.7778" fill="white" transform="translate(13.332 15.1113)" />
        </clipPath>
    </defs>
</svg>